<svg width="137" height="39" viewBox="0 0 137 39" fill="none" xmlns="http://www.w3.org/2000/svg">
<path d="M0.8 29V28.34L12.24 11.62H1.96V7.4H19.74V8.08L8.34 24.78H19.26V29H0.8ZM33.5466 29.6C31.3599 29.6 29.4399 29.1267 27.7866 28.18C26.1332 27.2333 24.8399 25.92 23.9066 24.24C22.9866 22.56 22.5266 20.6267 22.5266 18.44C22.5266 16.08 22.9799 14.0333 23.8866 12.3C24.7932 10.5533 26.0532 9.2 27.6666 8.24C29.2799 7.28 31.1466 6.8 33.2666 6.8C35.5066 6.8 37.4066 7.32667 38.9666 8.38C40.5399 9.42 41.7066 10.8933 42.4666 12.8C43.2266 14.7067 43.5132 16.9533 43.3266 19.54H38.5466V17.78C38.5332 15.4333 38.1199 13.72 37.3066 12.64C36.4932 11.56 35.2132 11.02 33.4666 11.02C31.4932 11.02 30.0266 11.6333 29.0666 12.86C28.1066 14.0733 27.6266 15.8533 27.6266 18.2C27.6266 20.3867 28.1066 22.08 29.0666 23.28C30.0266 24.48 31.4266 25.08 33.2666 25.08C34.4532 25.08 35.4732 24.82 36.3266 24.3C37.1932 23.7667 37.8599 23 38.3266 22L43.0866 23.44C42.2599 25.3867 40.9799 26.9 39.2466 27.98C37.5266 29.06 35.6266 29.6 33.5466 29.6ZM26.1066 19.54V15.9H40.9666V19.54H26.1066ZM58.7831 29.6C56.6765 29.6 54.9098 29.1 53.4831 28.1C52.0565 27.1 50.9831 25.74 50.2631 24.02C49.5431 22.2867 49.1831 20.3467 49.1831 18.2C49.1831 16.0267 49.5431 14.08 50.2631 12.36C50.9831 10.64 52.0365 9.28667 53.4231 8.3C54.8231 7.3 56.5498 6.8 58.6031 6.8C60.6431 6.8 62.4098 7.3 63.9031 8.3C65.4098 9.28667 66.5765 10.64 67.4031 12.36C68.2298 14.0667 68.6431 16.0133 68.6431 18.2C68.6431 20.36 68.2365 22.3 67.4231 24.02C66.6098 25.74 65.4631 27.1 63.9831 28.1C62.5031 29.1 60.7698 29.6 58.7831 29.6ZM48.3631 38.6V7.4H52.6231V22.56H53.2231V38.6H48.3631ZM58.0431 25.28C59.2965 25.28 60.3298 24.9667 61.1431 24.34C61.9565 23.7133 62.5565 22.8667 62.9431 21.8C63.3431 20.72 63.5431 19.52 63.5431 18.2C63.5431 16.8933 63.3431 15.7067 62.9431 14.64C62.5431 13.56 61.9231 12.7067 61.0831 12.08C60.2431 11.44 59.1765 11.12 57.8831 11.12C56.6565 11.12 55.6565 11.42 54.8831 12.02C54.1098 12.6067 53.5365 13.4333 53.1631 14.5C52.8031 15.5533 52.6231 16.7867 52.6231 18.2C52.6231 19.6 52.8031 20.8333 53.1631 21.9C53.5365 22.9667 54.1165 23.8 54.9031 24.4C55.7031 24.9867 56.7498 25.28 58.0431 25.28Z" fill="#121212"/>
<path d="M89.1916 29V18.6C89.1916 17.92 89.1449 17.1667 89.0516 16.34C88.9582 15.5133 88.7382 14.72 88.3916 13.96C88.0582 13.1867 87.5516 12.5533 86.8716 12.06C86.2049 11.5667 85.2982 11.32 84.1516 11.32C83.5382 11.32 82.9316 11.42 82.3316 11.62C81.7316 11.82 81.1849 12.1667 80.6916 12.66C80.2116 13.14 79.8249 13.8067 79.5316 14.66C79.2382 15.5 79.0916 16.58 79.0916 17.9L76.2316 16.68C76.2316 14.84 76.5849 13.1733 77.2916 11.68C78.0116 10.1867 79.0649 9 80.4516 8.12C81.8382 7.22667 83.5449 6.78 85.5716 6.78C87.1716 6.78 88.4916 7.04667 89.5316 7.58C90.5716 8.11333 91.3982 8.79333 92.0116 9.62C92.6249 10.4467 93.0782 11.3267 93.3716 12.26C93.6649 13.1933 93.8516 14.08 93.9316 14.92C94.0249 15.7467 94.0716 16.42 94.0716 16.94V29H89.1916ZM74.2116 29V0.199999H78.5116V15.36H79.0916V29H74.2116ZM103.331 38.6L107.491 27.18L107.571 30.54L98.1506 7.4H103.171L109.851 24.52H108.571L115.071 7.4H119.891L107.851 38.6H103.331ZM124.073 29V7.4H128.333V12.66L127.813 11.98C128.08 11.26 128.433 10.6067 128.873 10.02C129.327 9.42 129.867 8.92667 130.493 8.54C131.027 8.18 131.613 7.9 132.253 7.7C132.907 7.48667 133.573 7.36 134.253 7.32C134.933 7.26667 135.593 7.29333 136.233 7.4V11.9C135.593 11.7133 134.853 11.6533 134.013 11.72C133.187 11.7867 132.44 12.02 131.773 12.42C131.107 12.78 130.56 13.24 130.133 13.8C129.72 14.36 129.413 15 129.213 15.72C129.013 16.4267 128.913 17.1933 128.913 18.02V29H124.073Z" fill="#EB1D36"/>
</svg>
